name rise49.25peak52.1432fall72.8391.mot
datacolumns 19
datarows 20
range 19.07659300000000 19.10825900000000
endheader
time	ground_force1_vx	ground_force1_vy	ground_force1_vz	ground_force1_px	ground_force1_py	ground_force1_pz	ground_force2_vx	ground_force2_vy	ground_force2_vz	ground_force2_px	ground_force2_py	ground_force2_pz	ground_torque1_x	ground_torque1_y	ground_torque1_z	ground_torque2_x	ground_torque2_y	ground_torque2_z	
19.07659300000000	0.51769500000000	40.27237600000000	-2.94681100000000	0.30383100000000	0.00000000000000	0.10686300000000	-46.46096900000000	807.41554299999996	-55.20252600000000	0.15163600000000	0.00000000000000	-0.06641200000000	0.00000000000000	-2.47262900000000	0.00000000000000	0.00000000000000	-22.21945900000000	0.00000000000000	
19.07826000000000	0.60688000000000	46.98450300000000	-3.30729400000000	0.30970900000000	0.00000000000000	0.10722200000000	-47.39792500000000	805.60115299999995	-54.93093000000000	0.15059800000000	0.00000000000000	-0.06628800000000	0.00000000000000	-2.79889400000000	0.00000000000000	0.00000000000000	-22.14854400000000	0.00000000000000	
19.07992400000000	0.70741300000000	53.72977000000000	-3.63050400000000	0.31524500000000	0.00000000000000	0.10756100000000	-48.34542200000000	803.61013400000002	-54.63423800000000	0.14957000000000	0.00000000000000	-0.06616000000000	0.00000000000000	-3.10044900000000	0.00000000000000	0.00000000000000	-22.07499600000000	0.00000000000000	
19.08159000000000	0.82236500000000	60.41932400000000	-3.90773000000000	0.32047300000000	0.00000000000000	0.10788300000000	-49.30203000000000	801.43713900000000	-54.31224500000000	0.14855500000000	0.00000000000000	-0.06602900000000	0.00000000000000	-3.37024200000000	0.00000000000000	0.00000000000000	-21.99871100000000	0.00000000000000	
19.08325800000000	0.95540300000000	66.98825200000000	-4.13284000000000	0.32542400000000	0.00000000000000	0.10819100000000	-50.26622400000000	799.07690300000002	-53.96478600000000	0.14755300000000	0.00000000000000	-0.06589400000000	0.00000000000000	-3.60342200000000	0.00000000000000	0.00000000000000	-21.91957500000000	0.00000000000000	
19.08492700000000	1.11065100000000	73.39739899999999	-4.30233300000000	0.33012300000000	0.00000000000000	0.10848600000000	-51.23638800000000	796.52426200000002	-53.59173400000000	0.14656400000000	0.00000000000000	-0.06575600000000	0.00000000000000	-3.79741600000000	0.00000000000000	0.00000000000000	-21.83746700000000	0.00000000000000	
19.08659500000000	1.29251600000000	79.63275700000000	-4.41517300000000	0.33459000000000	0.00000000000000	0.10877000000000	-52.21081300000000	793.77416400000004	-53.19300100000000	0.14558900000000	0.00000000000000	-0.06561400000000	0.00000000000000	-3.95179800000000	0.00000000000000	0.00000000000000	-21.75225800000000	0.00000000000000	
19.08826100000000	1.50550500000000	85.70288400000000	-4.47244300000000	0.33884200000000	0.00000000000000	0.10904400000000	-53.18770500000000	790.82168899999999	-52.76854300000000	0.14463000000000	0.00000000000000	-0.06546800000000	0.00000000000000	-4.06800700000000	0.00000000000000	0.00000000000000	-21.66380900000000	0.00000000000000	
19.08992900000000	1.75404400000000	91.63491300000000	-4.47688900000000	0.34289300000000	0.00000000000000	0.10930900000000	-54.16518300000000	787.66206899999997	-52.31835500000000	0.14368600000000	0.00000000000000	-0.06531900000000	0.00000000000000	-4.14894900000000	0.00000000000000	0.00000000000000	-21.57197400000000	0.00000000000000	
19.09159200000000	2.04231500000000	97.46971200000000	-4.43241000000000	0.34675600000000	0.00000000000000	0.10956700000000	-55.14128900000000	784.29070000000002	-51.84248100000000	0.14275700000000	0.00000000000000	-0.06516600000000	0.00000000000000	-4.19854800000000	0.00000000000000	0.00000000000000	-21.47660000000000	0.00000000000000	
19.09325400000000	2.37411900000000	103.25676500000000	-4.34354100000000	0.35044200000000	0.00000000000000	0.10981900000000	-56.11398400000000	780.70316600000001	-51.34100600000000	0.14184600000000	0.00000000000000	-0.06501000000000	0.00000000000000	-4.22128000000000	0.00000000000000	0.00000000000000	-21.37752700000000	0.00000000000000	
19.09492700000000	2.75277800000000	109.04921800000000	-4.21497100000000	0.35395900000000	0.00000000000000	0.11006500000000	-57.08115900000000	776.89525700000002	-50.81406300000000	0.14095100000000	0.00000000000000	-0.06484900000000	0.00000000000000	-4.22174300000000	0.00000000000000	0.00000000000000	-21.27459000000000	0.00000000000000	
19.09659700000000	3.18107000000000	114.89947100000001	-4.05114400000000	0.35731400000000	0.00000000000000	0.11030600000000	-58.04063500000000	772.86298799999997	-50.26183300000000	0.14007300000000	0.00000000000000	-0.06468500000000	0.00000000000000	-4.20428700000000	0.00000000000000	0.00000000000000	-21.16761800000000	0.00000000000000	
19.09825600000000	3.66120000000000	120.85556000000000	-3.85593700000000	0.36051600000000	0.00000000000000	0.11054300000000	-58.99017400000000	768.60261800000001	-49.68454400000000	0.13921300000000	0.00000000000000	-0.06451700000000	0.00000000000000	-4.17271600000000	0.00000000000000	0.00000000000000	-21.05643500000000	0.00000000000000	
19.09992500000000	4.19479900000000	126.95847999999999	-3.63244600000000	0.36356800000000	0.00000000000000	0.11077600000000	-59.92747700000000	764.11067700000001	-49.08247100000000	0.13836900000000	0.00000000000000	-0.06434600000000	0.00000000000000	-4.13009200000000	0.00000000000000	0.00000000000000	-20.94086300000000	0.00000000000000	
19.10158900000000	4.78295400000000	133.24047200000001	-3.38286700000000	0.36647700000000	0.00000000000000	0.11100600000000	-60.85019500000000	759.38397499999996	-48.45594100000000	0.13754300000000	0.00000000000000	-0.06417000000000	0.00000000000000	-4.07862000000000	0.00000000000000	0.00000000000000	-20.82072200000000	0.00000000000000	
19.10325700000000	5.42625200000000	139.72424799999999	-3.10847300000000	0.36924700000000	0.00000000000000	0.11123400000000	-61.75593400000000	754.41963099999998	-47.80532800000000	0.13673400000000	0.00000000000000	-0.06399100000000	0.00000000000000	-4.01961700000000	0.00000000000000	0.00000000000000	-20.69582800000000	0.00000000000000	
19.10492600000000	6.12484100000000	146.42302699999999	-2.80965800000000	0.37188100000000	0.00000000000000	0.11145900000000	-62.64225900000000	749.21508800000004	-47.13105600000000	0.13594200000000	0.00000000000000	-0.06380800000000	0.00000000000000	-3.95355800000000	0.00000000000000	0.00000000000000	-20.56599700000000	0.00000000000000	
19.10659600000000	6.87849200000000	153.34124000000000	-2.48604900000000	0.37438300000000	0.00000000000000	0.11168200000000	-63.50670500000000	743.76812900000004	-46.43359900000000	0.13516700000000	0.00000000000000	-0.06362200000000	0.00000000000000	-3.88016900000000	0.00000000000000	0.00000000000000	-20.43104700000000	0.00000000000000	
19.10825900000000	7.68666100000000	160.47573000000000	-2.13665400000000	0.37675700000000	0.00000000000000	0.11190400000000	-64.34677900000000	738.07689500000004	-45.71348200000000	0.13440800000000	0.00000000000000	-0.06343200000000	0.00000000000000	-3.79857100000000	0.00000000000000	0.00000000000000	-20.29079600000000	0.00000000000000	
